<?xml version="1.0" ?><!DOCTYPE svg  PUBLIC '-//W3C//DTD SVG 1.1//EN'  'http://www.w3.org/Graphics/SVG/1.1/DTD/svg11.dtd'><svg style="enable-background:new 0 0 35.999 36.005;" version="1.1" viewBox="0 0 35.999 36.005" xml:space="preserve" xmlns="http://www.w3.org/2000/svg" xmlns:xlink="http://www.w3.org/1999/xlink"><g id="Open_Doc"><g id="Layer_16"><g id="ClipView_13"><path d="M0,0v36.005h35.999V0H0z" marker-end="none" marker-start="none" style="fill:none;"/><g><defs><rect height="36.005" id="SVGID_1_" width="35.999"/></defs><clipPath id="SVGID_2_"><use style="overflow:visible;" xlink:href="#SVGID_1_"/></clipPath><g style="clip-path:url(#SVGID_2_);"><g id="Group_30"><path d="M1.546,32.039l-0.045-21.54        c-0.001-0.163,0.052-0.321,0.15-0.452l2.25-3c0.141-0.188,0.363-0.3,0.6-0.3h7.5c0.236,0,0.458,0.112,0.6,0.3l2.025,2.7        h16.125c0.413,0,0.75,0.337,0.749,0.751l-0.001,21.54c0,0.413-0.336,0.749-0.749,0.749H2.296        C1.882,32.787,1.546,32.452,1.546,32.039z" marker-end="none" marker-start="none" style="fill:#B2841E;"/><g id="Group_31"><linearGradient gradientTransform="matrix(6.123234e-017 1 -1 6.123234e-017 203.501 97.878)" gradientUnits="userSpaceOnUse" id="SVGID_3_" x1="-88.704" x2="-82.936" y1="187" y2="187"><stop offset="0" style="stop-color:#F1E994"/><stop offset="1" style="stop-color:#FEDF17"/></linearGradient><path d="M2.251,10.497l0.045,21.54H30.75l0.001-21.54         h-16.5l-2.25-3h-7.5L2.251,10.497z" marker-end="none" marker-start="none" style="fill:url(#SVGID_3_);"/><a><path d="M3.938,8.247l0.563-0.75h7.5l0.562,0.75H3.938z" marker-end="none" marker-start="none" style="fill:#FFFDEA;"/></a></g></g><g id="Group_32"><g id="Group_33"><path d="M1.679,32.106l3.464-18         c0.068-0.353,0.377-0.609,0.737-0.609h28.455c0.47,0,0.825,0.43,0.736,0.892l-3.464,18c-0.068,0.353-0.377,0.608-0.736,0.608         H2.416C1.945,32.997,1.59,32.568,1.679,32.106z" marker-end="none" marker-start="none" style="fill:#B2841E;"/><linearGradient gradientTransform="matrix(-0.1889 0.982 -1.0183 8.895993e-006 208.2327 96.1116)" gradientUnits="userSpaceOnUse" id="SVGID_4_" x1="-90.2405" x2="-66.1845" y1="200.204" y2="200.204"><stop offset="0" style="stop-color:#F1E994"/><stop offset="1" style="stop-color:#FEDF17"/></linearGradient><path d="M5.88,14.247l-3.464,18h28.455l3.464-18H5.88z" marker-end="none" marker-start="none" style="fill:url(#SVGID_4_);"/></g><path d="M2.682,30.747l-0.144,0.751h28.453        l0.144-0.751H2.682z" marker-end="none" marker-start="none" style="fill:#D9A025;fill-opacity:0.4078;"/><path d="M2.565,31.496l-0.144,0.749h28.451        l0.144-0.749H2.565z" marker-end="none" marker-start="none" style="fill:#FFFDEA;fill-opacity:0.4078;"/><path d="M3.021,29.247l-0.144,0.749h28.451        l0.144-0.749H3.021z" marker-end="none" marker-start="none" style="fill:#D9A025;fill-opacity:0.4078;"/><path d="M2.826,29.997l-0.144,0.749h28.453        l0.144-0.749H2.826z" marker-end="none" marker-start="none" style="fill:#FFFDEA;fill-opacity:0.4078;"/><defs><filter filterUnits="userSpaceOnUse" height="17.993" id="Adobe_OpacityMaskFilter" width="4.187" x="2.421" y="14.247"><feColorMatrix type="matrix" values="1 0 0 0 0  0 1 0 0 0  0 0 1 0 0  0 0 0 1 0"/></filter></defs><mask height="17.993" id="TranspMask_15_1_" maskUnits="userSpaceOnUse" width="4.187" x="2.421" y="14.247"><linearGradient gradientTransform="matrix(-0.1111 0.9938 -1.0277 0.1921 192.9833 93.7283)" gradientUnits="userSpaceOnUse" id="SVGID_5_" x1="-356.8563" x2="-338.7453" y1="180.8551" y2="180.8551"><stop offset="0" style="stop-color:#FFFFFF"/><stop offset="1" style="stop-color:#000000"/></linearGradient><rect height="784.45" style="fill:url(#SVGID_5_);filter:url(#Adobe_OpacityMaskFilter);" width="576.899" x="-269.075" y="-373.37"/></mask><path d="M5.883,14.247L2.421,32.24        h0.725l3.462-17.993H5.883z" marker-end="none" marker-start="none" style="mask:url(#TranspMask_15_1_);fill:#FFFDEA;"/><path d="M5.859,14.247l-0.144,0.749H34.18        l0.144-0.749H5.859z" marker-end="none" marker-start="none" style="fill:#FFFDEA;fill-opacity:0.8549;"/><path d="M3.116,28.497l-0.144,0.749h28.453        l0.144-0.749H3.116z" marker-end="none" marker-start="none" style="fill:#FFFDEA;fill-opacity:0.4078;"/><path d="M3.26,27.747l-0.144,0.749h28.451        l0.144-0.749H3.26z" marker-end="none" marker-start="none" style="fill:#D9A025;fill-opacity:0.4078;"/></g><g id="Group_34"><path d="M22.049,10.706l2.897-2.781l-0.279-0.348        c-0.426-0.483-0.931-0.92-1.507-1.287c-2.503-1.592-5.642-1.4-7.91,0.245l-0.896,0.778l-0.639,0.815        c-0.568,0.725-1.698-0.033-1.242-0.833l0.49-0.861l0.018-0.032c3.334-5.246,10.304-6.796,15.549-3.457l0.802,0.572        l2.385-2.407C32.187,0.635,33,0.97,33,1.637v9.61c0,0.414-0.337,0.75-0.75,0.75h-9.681        C21.895,11.997,21.563,11.173,22.049,10.706z" marker-end="none" marker-start="none" style="fill:#208712;"/><linearGradient gradientTransform="matrix(-0.7592 -0.6508 0.6508 -0.7592 144.9261 122.3903)" gradientUnits="userSpaceOnUse" id="SVGID_6_" x1="159.5654" x2="170.5874" y1="9.8345" y2="9.8345"><stop offset="0" style="stop-color:#84DF77"/><stop offset="1" style="stop-color:#3EBD29"/></linearGradient><path d="M13.125,7.665l0.49-0.861        c3.111-4.896,9.617-6.343,14.513-3.226c0.303,0.192,0.597,0.4,0.874,0.621l0.381,0.331l2.867-2.893v9.61h-9.681l3.364-3.229        l-0.252-0.375c-0.558-0.767-1.269-1.446-2.118-1.986c-3.166-2.015-7.251-1.449-9.765,1.149L13.125,7.665z" marker-end="none" marker-start="none" style="fill:url(#SVGID_6_);"/></g></g></g></g></g></g><g id="Layer_1"/></svg>